<?xml version="1.0" standalone="no"?>
<!DOCTYPE svg PUBLIC "-//W3C//DTD SVG 20010904//EN"
 "http://www.w3.org/TR/2001/REC-SVG-20010904/DTD/svg10.dtd">
<svg version="1.0" xmlns="http://www.w3.org/2000/svg"
 width="260.000000pt" height="260.000000pt" viewBox="0 0 260.000000 260.000000"
 preserveAspectRatio="xMidYMid meet">
<metadata>
Created by potrace 1.14, written by Peter Selinger 2001-2017
</metadata>
<g transform="translate(0.000000,260.000000) scale(0.100000,-0.100000)"
fill="#000000" stroke="none">
<path d="M1408 1893 c-5 -7 -11 -18 -12 -25 -2 -7 -6 -20 -9 -28 -13 -31 -161
-427 -178 -475 -9 -27 -64 -176 -122 -330 -57 -154 -108 -290 -111 -302 -7
-23 -7 -23 104 -23 105 0 111 1 120 23 5 12 80 211 166 442 86 231 180 484
210 563 30 79 54 149 54 156 0 16 -208 16 -222 -1z"/>
<path d="M469 1550 l-396 -199 -2 -59 -1 -59 132 -58 c73 -32 156 -68 183 -80
206 -93 486 -215 493 -215 11 0 7 179 -4 189 -5 5 -110 51 -234 101 -124 51
-238 98 -254 106 -16 8 -35 14 -43 14 -37 0 10 25 260 139 150 69 274 126 276
127 8 7 5 188 -4 190 -6 2 -188 -87 -406 -196z"/>
<path d="M1715 1655 l1 -96 194 -90 c256 -119 278 -129 324 -150 l39 -17 -44
-20 c-24 -11 -89 -38 -144 -60 -237 -97 -351 -145 -359 -153 -11 -10 -14 -189
-3 -189 7 0 27 9 145 61 26 12 103 46 172 76 69 30 148 65 175 78 28 12 109
48 181 80 l131 57 2 59 1 59 -92 45 c-51 25 -100 50 -108 55 -28 17 -602 300
-608 300 -4 0 -7 -43 -7 -95z"/>
</g>
</svg>
